<svg xmlns="http://www.w3.org/2000/svg" version="1.1" width="500" height="500">
<rect x="0" y="0" width="500" height="500" style="stroke:#000;fill:none" />
<line x1="375" y1="285" x2="297" y2="330" style="stroke:#000" />
<line x1="375" y1="294" x2="305" y2="334" style="stroke:#000" />
<line x1="375" y1="302" x2="312" y2="339" style="stroke:#000" />
<line x1="375" y1="309" x2="318" y2="342" style="stroke:#000" />
<line x1="375" y1="316" x2="324" y2="345" style="stroke:#000" />
<line x1="375" y1="322" x2="329" y2="348" style="stroke:#000" />
<line x1="375" y1="327" x2="333" y2="351" style="stroke:#000" />
<line x1="375" y1="332" x2="338" y2="353" style="stroke:#000" />
<line x1="375" y1="336" x2="341" y2="356" style="stroke:#000" />
<line x1="375" y1="340" x2="345" y2="358" style="stroke:#000" />
<line x1="375" y1="344" x2="348" y2="359" style="stroke:#000" />
<line x1="375" y1="347" x2="350" y2="361" style="stroke:#000" />
<line x1="375" y1="350" x2="353" y2="362" style="stroke:#000" />
<line x1="375" y1="352" x2="355" y2="364" style="stroke:#000" />
<line x1="375" y1="354" x2="357" y2="365" style="stroke:#000" />
<line x1="375" y1="356" x2="359" y2="366" style="stroke:#000" />
<line x1="375" y1="358" x2="360" y2="367" style="stroke:#000" />
<line x1="375" y1="360" x2="362" y2="367" style="stroke:#000" />
<line x1="375" y1="361" x2="363" y2="368" style="stroke:#000" />
<line x1="375" y1="363" x2="364" y2="369" style="stroke:#000" />
<line x1="375" y1="364" x2="365" y2="370" style="stroke:#000" />
<line x1="375" y1="365" x2="366" y2="370" style="stroke:#000" />
<line x1="375" y1="366" x2="367" y2="371" style="stroke:#000" />
<line x1="375" y1="367" x2="368" y2="371" style="stroke:#000" />
<line x1="375" y1="368" x2="369" y2="371" style="stroke:#000" />
<line x1="297" y1="330" x2="297" y2="420" style="stroke:#000" />
<line x1="305" y1="334" x2="305" y2="416" style="stroke:#000" />
<line x1="312" y1="339" x2="312" y2="411" style="stroke:#000" />
<line x1="318" y1="342" x2="318" y2="408" style="stroke:#000" />
<line x1="324" y1="345" x2="324" y2="405" style="stroke:#000" />
<line x1="329" y1="348" x2="329" y2="402" style="stroke:#000" />
<line x1="333" y1="351" x2="333" y2="399" style="stroke:#000" />
<line x1="338" y1="353" x2="338" y2="397" style="stroke:#000" />
<line x1="341" y1="356" x2="341" y2="394" style="stroke:#000" />
<line x1="345" y1="358" x2="345" y2="392" style="stroke:#000" />
<line x1="348" y1="359" x2="348" y2="391" style="stroke:#000" />
<line x1="350" y1="361" x2="350" y2="389" style="stroke:#000" />
<line x1="353" y1="362" x2="353" y2="388" style="stroke:#000" />
<line x1="355" y1="364" x2="355" y2="386" style="stroke:#000" />
<line x1="357" y1="365" x2="357" y2="385" style="stroke:#000" />
<line x1="359" y1="366" x2="359" y2="384" style="stroke:#000" />
<line x1="360" y1="367" x2="360" y2="383" style="stroke:#000" />
<line x1="362" y1="367" x2="362" y2="383" style="stroke:#000" />
<line x1="363" y1="368" x2="363" y2="382" style="stroke:#000" />
<line x1="364" y1="369" x2="364" y2="381" style="stroke:#000" />
<line x1="365" y1="370" x2="365" y2="380" style="stroke:#000" />
<line x1="366" y1="370" x2="366" y2="380" style="stroke:#000" />
<line x1="367" y1="371" x2="367" y2="379" style="stroke:#000" />
<line x1="368" y1="371" x2="368" y2="379" style="stroke:#000" />
<line x1="369" y1="371" x2="369" y2="379" style="stroke:#000" />
<line x1="297" y1="420" x2="375" y2="465" style="stroke:#000" />
<line x1="305" y1="416" x2="375" y2="456" style="stroke:#000" />
<line x1="312" y1="411" x2="375" y2="448" style="stroke:#000" />
<line x1="318" y1="408" x2="375" y2="441" style="stroke:#000" />
<line x1="324" y1="405" x2="375" y2="434" style="stroke:#000" />
<line x1="329" y1="402" x2="375" y2="428" style="stroke:#000" />
<line x1="333" y1="399" x2="375" y2="423" style="stroke:#000" />
<line x1="338" y1="397" x2="375" y2="418" style="stroke:#000" />
<line x1="341" y1="394" x2="375" y2="414" style="stroke:#000" />
<line x1="345" y1="392" x2="375" y2="410" style="stroke:#000" />
<line x1="348" y1="391" x2="375" y2="406" style="stroke:#000" />
<line x1="350" y1="389" x2="375" y2="403" style="stroke:#000" />
<line x1="353" y1="388" x2="375" y2="400" style="stroke:#000" />
<line x1="355" y1="386" x2="375" y2="398" style="stroke:#000" />
<line x1="357" y1="385" x2="375" y2="396" style="stroke:#000" />
<line x1="359" y1="384" x2="375" y2="394" style="stroke:#000" />
<line x1="360" y1="383" x2="375" y2="392" style="stroke:#000" />
<line x1="362" y1="383" x2="375" y2="390" style="stroke:#000" />
<line x1="363" y1="382" x2="375" y2="389" style="stroke:#000" />
<line x1="364" y1="381" x2="375" y2="387" style="stroke:#000" />
<line x1="365" y1="380" x2="375" y2="386" style="stroke:#000" />
<line x1="366" y1="380" x2="375" y2="385" style="stroke:#000" />
<line x1="367" y1="379" x2="375" y2="384" style="stroke:#000" />
<line x1="368" y1="379" x2="375" y2="383" style="stroke:#000" />
<line x1="369" y1="379" x2="375" y2="382" style="stroke:#000" />
<line x1="375" y1="465" x2="453" y2="420" style="stroke:#000" />
<line x1="375" y1="456" x2="445" y2="416" style="stroke:#000" />
<line x1="375" y1="448" x2="438" y2="411" style="stroke:#000" />
<line x1="375" y1="441" x2="432" y2="408" style="stroke:#000" />
<line x1="375" y1="434" x2="426" y2="405" style="stroke:#000" />
<line x1="375" y1="428" x2="421" y2="402" style="stroke:#000" />
<line x1="375" y1="423" x2="417" y2="399" style="stroke:#000" />
<line x1="375" y1="418" x2="412" y2="397" style="stroke:#000" />
<line x1="375" y1="414" x2="409" y2="394" style="stroke:#000" />
<line x1="375" y1="410" x2="405" y2="392" style="stroke:#000" />
<line x1="375" y1="406" x2="402" y2="391" style="stroke:#000" />
<line x1="375" y1="403" x2="400" y2="389" style="stroke:#000" />
<line x1="375" y1="400" x2="397" y2="388" style="stroke:#000" />
<line x1="375" y1="398" x2="395" y2="386" style="stroke:#000" />
<line x1="375" y1="396" x2="393" y2="385" style="stroke:#000" />
<line x1="375" y1="394" x2="391" y2="384" style="stroke:#000" />
<line x1="375" y1="392" x2="390" y2="383" style="stroke:#000" />
<line x1="375" y1="390" x2="388" y2="383" style="stroke:#000" />
<line x1="375" y1="389" x2="387" y2="382" style="stroke:#000" />
<line x1="375" y1="387" x2="386" y2="381" style="stroke:#000" />
<line x1="375" y1="386" x2="385" y2="380" style="stroke:#000" />
<line x1="375" y1="385" x2="384" y2="380" style="stroke:#000" />
<line x1="375" y1="384" x2="383" y2="379" style="stroke:#000" />
<line x1="375" y1="383" x2="382" y2="379" style="stroke:#000" />
<line x1="375" y1="382" x2="381" y2="379" style="stroke:#000" />
<line x1="453" y1="420" x2="453" y2="330" style="stroke:#000" />
<line x1="445" y1="416" x2="445" y2="334" style="stroke:#000" />
<line x1="438" y1="411" x2="438" y2="339" style="stroke:#000" />
<line x1="432" y1="408" x2="432" y2="342" style="stroke:#000" />
<line x1="426" y1="405" x2="426" y2="345" style="stroke:#000" />
<line x1="421" y1="402" x2="421" y2="348" style="stroke:#000" />
<line x1="417" y1="399" x2="417" y2="351" style="stroke:#000" />
<line x1="412" y1="397" x2="412" y2="353" style="stroke:#000" />
<line x1="409" y1="394" x2="409" y2="356" style="stroke:#000" />
<line x1="405" y1="392" x2="405" y2="358" style="stroke:#000" />
<line x1="402" y1="391" x2="402" y2="359" style="stroke:#000" />
<line x1="400" y1="389" x2="400" y2="361" style="stroke:#000" />
<line x1="397" y1="388" x2="397" y2="362" style="stroke:#000" />
<line x1="395" y1="386" x2="395" y2="364" style="stroke:#000" />
<line x1="393" y1="385" x2="393" y2="365" style="stroke:#000" />
<line x1="391" y1="384" x2="391" y2="366" style="stroke:#000" />
<line x1="390" y1="383" x2="390" y2="367" style="stroke:#000" />
<line x1="388" y1="383" x2="388" y2="367" style="stroke:#000" />
<line x1="387" y1="382" x2="387" y2="368" style="stroke:#000" />
<line x1="386" y1="381" x2="386" y2="369" style="stroke:#000" />
<line x1="385" y1="380" x2="385" y2="370" style="stroke:#000" />
<line x1="384" y1="380" x2="384" y2="370" style="stroke:#000" />
<line x1="383" y1="379" x2="383" y2="371" style="stroke:#000" />
<line x1="382" y1="379" x2="382" y2="371" style="stroke:#000" />
<line x1="381" y1="379" x2="381" y2="371" style="stroke:#000" />
<line x1="453" y1="330" x2="375" y2="285" style="stroke:#000" />
<line x1="445" y1="334" x2="375" y2="294" style="stroke:#000" />
<line x1="438" y1="339" x2="375" y2="302" style="stroke:#000" />
<line x1="432" y1="342" x2="375" y2="309" style="stroke:#000" />
<line x1="426" y1="345" x2="375" y2="316" style="stroke:#000" />
<line x1="421" y1="348" x2="375" y2="322" style="stroke:#000" />
<line x1="417" y1="351" x2="375" y2="327" style="stroke:#000" />
<line x1="412" y1="353" x2="375" y2="332" style="stroke:#000" />
<line x1="409" y1="356" x2="375" y2="336" style="stroke:#000" />
<line x1="405" y1="358" x2="375" y2="340" style="stroke:#000" />
<line x1="402" y1="359" x2="375" y2="344" style="stroke:#000" />
<line x1="400" y1="361" x2="375" y2="347" style="stroke:#000" />
<line x1="397" y1="362" x2="375" y2="350" style="stroke:#000" />
<line x1="395" y1="364" x2="375" y2="352" style="stroke:#000" />
<line x1="393" y1="365" x2="375" y2="354" style="stroke:#000" />
<line x1="391" y1="366" x2="375" y2="356" style="stroke:#000" />
<line x1="390" y1="367" x2="375" y2="358" style="stroke:#000" />
<line x1="388" y1="367" x2="375" y2="360" style="stroke:#000" />
<line x1="387" y1="368" x2="375" y2="361" style="stroke:#000" />
<line x1="386" y1="369" x2="375" y2="363" style="stroke:#000" />
<line x1="385" y1="370" x2="375" y2="364" style="stroke:#000" />
<line x1="384" y1="370" x2="375" y2="365" style="stroke:#000" />
<line x1="383" y1="371" x2="375" y2="366" style="stroke:#000" />
<line x1="382" y1="371" x2="375" y2="367" style="stroke:#000" />
<line x1="381" y1="371" x2="375" y2="368" style="stroke:#000" />
</svg>
