<svg xmlns="http://www.w3.org/2000/svg" version="1.1" width="500" height="500">
<rect x="0" y="0" width="500" height="500" style="stroke:#000;fill:none" />
<line x1="125" y1="285" x2="39" y2="347" style="stroke:#000" />
<line x1="125" y1="294" x2="48" y2="350" style="stroke:#000" />
<line x1="125" y1="302" x2="56" y2="352" style="stroke:#000" />
<line x1="125" y1="309" x2="63" y2="355" style="stroke:#000" />
<line x1="125" y1="316" x2="69" y2="357" style="stroke:#000" />
<line x1="125" y1="322" x2="75" y2="359" style="stroke:#000" />
<line x1="125" y1="327" x2="80" y2="360" style="stroke:#000" />
<line x1="125" y1="332" x2="84" y2="362" style="stroke:#000" />
<line x1="125" y1="336" x2="88" y2="363" style="stroke:#000" />
<line x1="125" y1="340" x2="92" y2="364" style="stroke:#000" />
<line x1="125" y1="344" x2="95" y2="365" style="stroke:#000" />
<line x1="125" y1="347" x2="98" y2="366" style="stroke:#000" />
<line x1="125" y1="350" x2="101" y2="367" style="stroke:#000" />
<line x1="125" y1="352" x2="103" y2="368" style="stroke:#000" />
<line x1="125" y1="354" x2="105" y2="369" style="stroke:#000" />
<line x1="125" y1="356" x2="107" y2="369" style="stroke:#000" />
<line x1="125" y1="358" x2="109" y2="370" style="stroke:#000" />
<line x1="125" y1="360" x2="111" y2="370" style="stroke:#000" />
<line x1="125" y1="361" x2="112" y2="371" style="stroke:#000" />
<line x1="125" y1="363" x2="113" y2="371" style="stroke:#000" />
<line x1="125" y1="364" x2="115" y2="372" style="stroke:#000" />
<line x1="125" y1="365" x2="116" y2="372" style="stroke:#000" />
<line x1="125" y1="366" x2="117" y2="372" style="stroke:#000" />
<line x1="125" y1="367" x2="117" y2="373" style="stroke:#000" />
<line x1="125" y1="368" x2="118" y2="373" style="stroke:#000" />
<line x1="39" y1="347" x2="72" y2="448" style="stroke:#000" />
<line x1="48" y1="350" x2="77" y2="441" style="stroke:#000" />
<line x1="56" y1="352" x2="82" y2="434" style="stroke:#000" />
<line x1="63" y1="355" x2="86" y2="428" style="stroke:#000" />
<line x1="69" y1="357" x2="90" y2="423" style="stroke:#000" />
<line x1="75" y1="359" x2="94" y2="418" style="stroke:#000" />
<line x1="80" y1="360" x2="97" y2="414" style="stroke:#000" />
<line x1="84" y1="362" x2="100" y2="410" style="stroke:#000" />
<line x1="88" y1="363" x2="102" y2="406" style="stroke:#000" />
<line x1="92" y1="364" x2="104" y2="403" style="stroke:#000" />
<line x1="95" y1="365" x2="106" y2="400" style="stroke:#000" />
<line x1="98" y1="366" x2="108" y2="398" style="stroke:#000" />
<line x1="101" y1="367" x2="110" y2="396" style="stroke:#000" />
<line x1="103" y1="368" x2="112" y2="394" style="stroke:#000" />
<line x1="105" y1="369" x2="113" y2="392" style="stroke:#000" />
<line x1="107" y1="369" x2="114" y2="390" style="stroke:#000" />
<line x1="109" y1="370" x2="115" y2="389" style="stroke:#000" />
<line x1="111" y1="370" x2="116" y2="387" style="stroke:#000" />
<line x1="112" y1="371" x2="117" y2="386" style="stroke:#000" />
<line x1="113" y1="371" x2="118" y2="385" style="stroke:#000" />
<line x1="115" y1="372" x2="119" y2="384" style="stroke:#000" />
<line x1="116" y1="372" x2="119" y2="383" style="stroke:#000" />
<line x1="117" y1="372" x2="120" y2="382" style="stroke:#000" />
<line x1="117" y1="373" x2="120" y2="381" style="stroke:#000" />
<line x1="118" y1="373" x2="121" y2="381" style="stroke:#000" />
<line x1="72" y1="448" x2="178" y2="448" style="stroke:#000" />
<line x1="77" y1="441" x2="173" y2="441" style="stroke:#000" />
<line x1="82" y1="434" x2="168" y2="434" style="stroke:#000" />
<line x1="86" y1="428" x2="164" y2="428" style="stroke:#000" />
<line x1="90" y1="423" x2="160" y2="423" style="stroke:#000" />
<line x1="94" y1="418" x2="156" y2="418" style="stroke:#000" />
<line x1="97" y1="414" x2="153" y2="414" style="stroke:#000" />
<line x1="100" y1="410" x2="150" y2="410" style="stroke:#000" />
<line x1="102" y1="406" x2="148" y2="406" style="stroke:#000" />
<line x1="104" y1="403" x2="146" y2="403" style="stroke:#000" />
<line x1="106" y1="400" x2="144" y2="400" style="stroke:#000" />
<line x1="108" y1="398" x2="142" y2="398" style="stroke:#000" />
<line x1="110" y1="396" x2="140" y2="396" style="stroke:#000" />
<line x1="112" y1="394" x2="138" y2="394" style="stroke:#000" />
<line x1="113" y1="392" x2="137" y2="392" style="stroke:#000" />
<line x1="114" y1="390" x2="136" y2="390" style="stroke:#000" />
<line x1="115" y1="389" x2="135" y2="389" style="stroke:#000" />
<line x1="116" y1="387" x2="134" y2="387" style="stroke:#000" />
<line x1="117" y1="386" x2="133" y2="386" style="stroke:#000" />
<line x1="118" y1="385" x2="132" y2="385" style="stroke:#000" />
<line x1="119" y1="384" x2="131" y2="384" style="stroke:#000" />
<line x1="119" y1="383" x2="131" y2="383" style="stroke:#000" />
<line x1="120" y1="382" x2="130" y2="382" style="stroke:#000" />
<line x1="120" y1="381" x2="130" y2="381" style="stroke:#000" />
<line x1="121" y1="381" x2="129" y2="381" style="stroke:#000" />
<line x1="178" y1="448" x2="211" y2="347" style="stroke:#000" />
<line x1="173" y1="441" x2="202" y2="350" style="stroke:#000" />
<line x1="168" y1="434" x2="194" y2="352" style="stroke:#000" />
<line x1="164" y1="428" x2="187" y2="355" style="stroke:#000" />
<line x1="160" y1="423" x2="181" y2="357" style="stroke:#000" />
<line x1="156" y1="418" x2="175" y2="359" style="stroke:#000" />
<line x1="153" y1="414" x2="170" y2="360" style="stroke:#000" />
<line x1="150" y1="410" x2="166" y2="362" style="stroke:#000" />
<line x1="148" y1="406" x2="162" y2="363" style="stroke:#000" />
<line x1="146" y1="403" x2="158" y2="364" style="stroke:#000" />
<line x1="144" y1="400" x2="155" y2="365" style="stroke:#000" />
<line x1="142" y1="398" x2="152" y2="366" style="stroke:#000" />
<line x1="140" y1="396" x2="149" y2="367" style="stroke:#000" />
<line x1="138" y1="394" x2="147" y2="368" style="stroke:#000" />
<line x1="137" y1="392" x2="145" y2="369" style="stroke:#000" />
<line x1="136" y1="390" x2="143" y2="369" style="stroke:#000" />
<line x1="135" y1="389" x2="141" y2="370" style="stroke:#000" />
<line x1="134" y1="387" x2="139" y2="370" style="stroke:#000" />
<line x1="133" y1="386" x2="138" y2="371" style="stroke:#000" />
<line x1="132" y1="385" x2="137" y2="371" style="stroke:#000" />
<line x1="131" y1="384" x2="135" y2="372" style="stroke:#000" />
<line x1="131" y1="383" x2="134" y2="372" style="stroke:#000" />
<line x1="130" y1="382" x2="133" y2="372" style="stroke:#000" />
<line x1="130" y1="381" x2="133" y2="373" style="stroke:#000" />
<line x1="129" y1="381" x2="132" y2="373" style="stroke:#000" />
<line x1="211" y1="347" x2="125" y2="285" style="stroke:#000" />
<line x1="202" y1="350" x2="125" y2="294" style="stroke:#000" />
<line x1="194" y1="352" x2="125" y2="302" style="stroke:#000" />
<line x1="187" y1="355" x2="125" y2="309" style="stroke:#000" />
<line x1="181" y1="357" x2="125" y2="316" style="stroke:#000" />
<line x1="175" y1="359" x2="125" y2="322" style="stroke:#000" />
<line x1="170" y1="360" x2="125" y2="327" style="stroke:#000" />
<line x1="166" y1="362" x2="125" y2="332" style="stroke:#000" />
<line x1="162" y1="363" x2="125" y2="336" style="stroke:#000" />
<line x1="158" y1="364" x2="125" y2="340" style="stroke:#000" />
<line x1="155" y1="365" x2="125" y2="344" style="stroke:#000" />
<line x1="152" y1="366" x2="125" y2="347" style="stroke:#000" />
<line x1="149" y1="367" x2="125" y2="350" style="stroke:#000" />
<line x1="147" y1="368" x2="125" y2="352" style="stroke:#000" />
<line x1="145" y1="369" x2="125" y2="354" style="stroke:#000" />
<line x1="143" y1="369" x2="125" y2="356" style="stroke:#000" />
<line x1="141" y1="370" x2="125" y2="358" style="stroke:#000" />
<line x1="139" y1="370" x2="125" y2="360" style="stroke:#000" />
<line x1="138" y1="371" x2="125" y2="361" style="stroke:#000" />
<line x1="137" y1="371" x2="125" y2="363" style="stroke:#000" />
<line x1="135" y1="372" x2="125" y2="364" style="stroke:#000" />
<line x1="134" y1="372" x2="125" y2="365" style="stroke:#000" />
<line x1="133" y1="372" x2="125" y2="366" style="stroke:#000" />
<line x1="133" y1="373" x2="125" y2="367" style="stroke:#000" />
<line x1="132" y1="373" x2="125" y2="368" style="stroke:#000" />
</svg>
