<svg xmlns="http://www.w3.org/2000/svg" version="1.1" width="500" height="500">
<rect x="0" y="0" width="500" height="500" style="stroke:#000;fill:none" />
<line x1="375" y1="35" x2="285" y2="125" style="stroke:#000" />
<line x1="375" y1="44" x2="294" y2="125" style="stroke:#000" />
<line x1="375" y1="52" x2="302" y2="125" style="stroke:#000" />
<line x1="375" y1="59" x2="309" y2="125" style="stroke:#000" />
<line x1="375" y1="66" x2="316" y2="125" style="stroke:#000" />
<line x1="375" y1="72" x2="322" y2="125" style="stroke:#000" />
<line x1="375" y1="77" x2="327" y2="125" style="stroke:#000" />
<line x1="375" y1="82" x2="332" y2="125" style="stroke:#000" />
<line x1="375" y1="86" x2="336" y2="125" style="stroke:#000" />
<line x1="375" y1="90" x2="340" y2="125" style="stroke:#000" />
<line x1="375" y1="94" x2="344" y2="125" style="stroke:#000" />
<line x1="375" y1="97" x2="347" y2="125" style="stroke:#000" />
<line x1="375" y1="100" x2="350" y2="125" style="stroke:#000" />
<line x1="375" y1="102" x2="352" y2="125" style="stroke:#000" />
<line x1="375" y1="104" x2="354" y2="125" style="stroke:#000" />
<line x1="375" y1="106" x2="356" y2="125" style="stroke:#000" />
<line x1="375" y1="108" x2="358" y2="125" style="stroke:#000" />
<line x1="375" y1="110" x2="360" y2="125" style="stroke:#000" />
<line x1="375" y1="111" x2="361" y2="125" style="stroke:#000" />
<line x1="375" y1="113" x2="363" y2="125" style="stroke:#000" />
<line x1="375" y1="114" x2="364" y2="125" style="stroke:#000" />
<line x1="375" y1="115" x2="365" y2="125" style="stroke:#000" />
<line x1="375" y1="116" x2="366" y2="125" style="stroke:#000" />
<line x1="375" y1="117" x2="367" y2="125" style="stroke:#000" />
<line x1="375" y1="118" x2="368" y2="125" style="stroke:#000" />
<line x1="285" y1="125" x2="375" y2="215" style="stroke:#000" />
<line x1="294" y1="125" x2="375" y2="206" style="stroke:#000" />
<line x1="302" y1="125" x2="375" y2="198" style="stroke:#000" />
<line x1="309" y1="125" x2="375" y2="191" style="stroke:#000" />
<line x1="316" y1="125" x2="375" y2="184" style="stroke:#000" />
<line x1="322" y1="125" x2="375" y2="178" style="stroke:#000" />
<line x1="327" y1="125" x2="375" y2="173" style="stroke:#000" />
<line x1="332" y1="125" x2="375" y2="168" style="stroke:#000" />
<line x1="336" y1="125" x2="375" y2="164" style="stroke:#000" />
<line x1="340" y1="125" x2="375" y2="160" style="stroke:#000" />
<line x1="344" y1="125" x2="375" y2="156" style="stroke:#000" />
<line x1="347" y1="125" x2="375" y2="153" style="stroke:#000" />
<line x1="350" y1="125" x2="375" y2="150" style="stroke:#000" />
<line x1="352" y1="125" x2="375" y2="148" style="stroke:#000" />
<line x1="354" y1="125" x2="375" y2="146" style="stroke:#000" />
<line x1="356" y1="125" x2="375" y2="144" style="stroke:#000" />
<line x1="358" y1="125" x2="375" y2="142" style="stroke:#000" />
<line x1="360" y1="125" x2="375" y2="140" style="stroke:#000" />
<line x1="361" y1="125" x2="375" y2="139" style="stroke:#000" />
<line x1="363" y1="125" x2="375" y2="137" style="stroke:#000" />
<line x1="364" y1="125" x2="375" y2="136" style="stroke:#000" />
<line x1="365" y1="125" x2="375" y2="135" style="stroke:#000" />
<line x1="366" y1="125" x2="375" y2="134" style="stroke:#000" />
<line x1="367" y1="125" x2="375" y2="133" style="stroke:#000" />
<line x1="368" y1="125" x2="375" y2="132" style="stroke:#000" />
<line x1="375" y1="215" x2="465" y2="125" style="stroke:#000" />
<line x1="375" y1="206" x2="456" y2="125" style="stroke:#000" />
<line x1="375" y1="198" x2="448" y2="125" style="stroke:#000" />
<line x1="375" y1="191" x2="441" y2="125" style="stroke:#000" />
<line x1="375" y1="184" x2="434" y2="125" style="stroke:#000" />
<line x1="375" y1="178" x2="428" y2="125" style="stroke:#000" />
<line x1="375" y1="173" x2="423" y2="125" style="stroke:#000" />
<line x1="375" y1="168" x2="418" y2="125" style="stroke:#000" />
<line x1="375" y1="164" x2="414" y2="125" style="stroke:#000" />
<line x1="375" y1="160" x2="410" y2="125" style="stroke:#000" />
<line x1="375" y1="156" x2="406" y2="125" style="stroke:#000" />
<line x1="375" y1="153" x2="403" y2="125" style="stroke:#000" />
<line x1="375" y1="150" x2="400" y2="125" style="stroke:#000" />
<line x1="375" y1="148" x2="398" y2="125" style="stroke:#000" />
<line x1="375" y1="146" x2="396" y2="125" style="stroke:#000" />
<line x1="375" y1="144" x2="394" y2="125" style="stroke:#000" />
<line x1="375" y1="142" x2="392" y2="125" style="stroke:#000" />
<line x1="375" y1="140" x2="390" y2="125" style="stroke:#000" />
<line x1="375" y1="139" x2="389" y2="125" style="stroke:#000" />
<line x1="375" y1="137" x2="387" y2="125" style="stroke:#000" />
<line x1="375" y1="136" x2="386" y2="125" style="stroke:#000" />
<line x1="375" y1="135" x2="385" y2="125" style="stroke:#000" />
<line x1="375" y1="134" x2="384" y2="125" style="stroke:#000" />
<line x1="375" y1="133" x2="383" y2="125" style="stroke:#000" />
<line x1="375" y1="132" x2="382" y2="125" style="stroke:#000" />
<line x1="465" y1="125" x2="375" y2="35" style="stroke:#000" />
<line x1="456" y1="125" x2="375" y2="44" style="stroke:#000" />
<line x1="448" y1="125" x2="375" y2="52" style="stroke:#000" />
<line x1="441" y1="125" x2="375" y2="59" style="stroke:#000" />
<line x1="434" y1="125" x2="375" y2="66" style="stroke:#000" />
<line x1="428" y1="125" x2="375" y2="72" style="stroke:#000" />
<line x1="423" y1="125" x2="375" y2="77" style="stroke:#000" />
<line x1="418" y1="125" x2="375" y2="82" style="stroke:#000" />
<line x1="414" y1="125" x2="375" y2="86" style="stroke:#000" />
<line x1="410" y1="125" x2="375" y2="90" style="stroke:#000" />
<line x1="406" y1="125" x2="375" y2="94" style="stroke:#000" />
<line x1="403" y1="125" x2="375" y2="97" style="stroke:#000" />
<line x1="400" y1="125" x2="375" y2="100" style="stroke:#000" />
<line x1="398" y1="125" x2="375" y2="102" style="stroke:#000" />
<line x1="396" y1="125" x2="375" y2="104" style="stroke:#000" />
<line x1="394" y1="125" x2="375" y2="106" style="stroke:#000" />
<line x1="392" y1="125" x2="375" y2="108" style="stroke:#000" />
<line x1="390" y1="125" x2="375" y2="110" style="stroke:#000" />
<line x1="389" y1="125" x2="375" y2="111" style="stroke:#000" />
<line x1="387" y1="125" x2="375" y2="113" style="stroke:#000" />
<line x1="386" y1="125" x2="375" y2="114" style="stroke:#000" />
<line x1="385" y1="125" x2="375" y2="115" style="stroke:#000" />
<line x1="384" y1="125" x2="375" y2="116" style="stroke:#000" />
<line x1="383" y1="125" x2="375" y2="117" style="stroke:#000" />
<line x1="382" y1="125" x2="375" y2="118" style="stroke:#000" />
</svg>
