<svg xmlns="http://www.w3.org/2000/svg" version="1.1" width="500" height="500">
<rect x="0" y="0" width="500" height="500" style="stroke:#000;fill:none" />
<line x1="125" y1="35" x2="47" y2="170" style="stroke:#000" />
<line x1="125" y1="44" x2="55" y2="166" style="stroke:#000" />
<line x1="125" y1="52" x2="62" y2="161" style="stroke:#000" />
<line x1="125" y1="59" x2="68" y2="158" style="stroke:#000" />
<line x1="125" y1="66" x2="74" y2="155" style="stroke:#000" />
<line x1="125" y1="72" x2="79" y2="152" style="stroke:#000" />
<line x1="125" y1="77" x2="83" y2="149" style="stroke:#000" />
<line x1="125" y1="82" x2="88" y2="147" style="stroke:#000" />
<line x1="125" y1="86" x2="91" y2="144" style="stroke:#000" />
<line x1="125" y1="90" x2="95" y2="142" style="stroke:#000" />
<line x1="125" y1="94" x2="98" y2="141" style="stroke:#000" />
<line x1="125" y1="97" x2="100" y2="139" style="stroke:#000" />
<line x1="125" y1="100" x2="103" y2="138" style="stroke:#000" />
<line x1="125" y1="102" x2="105" y2="136" style="stroke:#000" />
<line x1="125" y1="104" x2="107" y2="135" style="stroke:#000" />
<line x1="125" y1="106" x2="109" y2="134" style="stroke:#000" />
<line x1="125" y1="108" x2="110" y2="133" style="stroke:#000" />
<line x1="125" y1="110" x2="112" y2="133" style="stroke:#000" />
<line x1="125" y1="111" x2="113" y2="132" style="stroke:#000" />
<line x1="125" y1="113" x2="114" y2="131" style="stroke:#000" />
<line x1="125" y1="114" x2="115" y2="130" style="stroke:#000" />
<line x1="125" y1="115" x2="116" y2="130" style="stroke:#000" />
<line x1="125" y1="116" x2="117" y2="129" style="stroke:#000" />
<line x1="125" y1="117" x2="118" y2="129" style="stroke:#000" />
<line x1="125" y1="118" x2="119" y2="129" style="stroke:#000" />
<line x1="47" y1="170" x2="203" y2="170" style="stroke:#000" />
<line x1="55" y1="166" x2="195" y2="166" style="stroke:#000" />
<line x1="62" y1="161" x2="188" y2="161" style="stroke:#000" />
<line x1="68" y1="158" x2="182" y2="158" style="stroke:#000" />
<line x1="74" y1="155" x2="176" y2="155" style="stroke:#000" />
<line x1="79" y1="152" x2="171" y2="152" style="stroke:#000" />
<line x1="83" y1="149" x2="167" y2="149" style="stroke:#000" />
<line x1="88" y1="147" x2="162" y2="147" style="stroke:#000" />
<line x1="91" y1="144" x2="159" y2="144" style="stroke:#000" />
<line x1="95" y1="142" x2="155" y2="142" style="stroke:#000" />
<line x1="98" y1="141" x2="152" y2="141" style="stroke:#000" />
<line x1="100" y1="139" x2="150" y2="139" style="stroke:#000" />
<line x1="103" y1="138" x2="147" y2="138" style="stroke:#000" />
<line x1="105" y1="136" x2="145" y2="136" style="stroke:#000" />
<line x1="107" y1="135" x2="143" y2="135" style="stroke:#000" />
<line x1="109" y1="134" x2="141" y2="134" style="stroke:#000" />
<line x1="110" y1="133" x2="140" y2="133" style="stroke:#000" />
<line x1="112" y1="133" x2="138" y2="133" style="stroke:#000" />
<line x1="113" y1="132" x2="137" y2="132" style="stroke:#000" />
<line x1="114" y1="131" x2="136" y2="131" style="stroke:#000" />
<line x1="115" y1="130" x2="135" y2="130" style="stroke:#000" />
<line x1="116" y1="130" x2="134" y2="130" style="stroke:#000" />
<line x1="117" y1="129" x2="133" y2="129" style="stroke:#000" />
<line x1="118" y1="129" x2="132" y2="129" style="stroke:#000" />
<line x1="119" y1="129" x2="131" y2="129" style="stroke:#000" />
<line x1="203" y1="170" x2="125" y2="35" style="stroke:#000" />
<line x1="195" y1="166" x2="125" y2="44" style="stroke:#000" />
<line x1="188" y1="161" x2="125" y2="52" style="stroke:#000" />
<line x1="182" y1="158" x2="125" y2="59" style="stroke:#000" />
<line x1="176" y1="155" x2="125" y2="66" style="stroke:#000" />
<line x1="171" y1="152" x2="125" y2="72" style="stroke:#000" />
<line x1="167" y1="149" x2="125" y2="77" style="stroke:#000" />
<line x1="162" y1="147" x2="125" y2="82" style="stroke:#000" />
<line x1="159" y1="144" x2="125" y2="86" style="stroke:#000" />
<line x1="155" y1="142" x2="125" y2="90" style="stroke:#000" />
<line x1="152" y1="141" x2="125" y2="94" style="stroke:#000" />
<line x1="150" y1="139" x2="125" y2="97" style="stroke:#000" />
<line x1="147" y1="138" x2="125" y2="100" style="stroke:#000" />
<line x1="145" y1="136" x2="125" y2="102" style="stroke:#000" />
<line x1="143" y1="135" x2="125" y2="104" style="stroke:#000" />
<line x1="141" y1="134" x2="125" y2="106" style="stroke:#000" />
<line x1="140" y1="133" x2="125" y2="108" style="stroke:#000" />
<line x1="138" y1="133" x2="125" y2="110" style="stroke:#000" />
<line x1="137" y1="132" x2="125" y2="111" style="stroke:#000" />
<line x1="136" y1="131" x2="125" y2="113" style="stroke:#000" />
<line x1="135" y1="130" x2="125" y2="114" style="stroke:#000" />
<line x1="134" y1="130" x2="125" y2="115" style="stroke:#000" />
<line x1="133" y1="129" x2="125" y2="116" style="stroke:#000" />
<line x1="132" y1="129" x2="125" y2="117" style="stroke:#000" />
<line x1="131" y1="129" x2="125" y2="118" style="stroke:#000" />
</svg>
