<svg xmlns="http://www.w3.org/2000/svg" version="1.1" width="500" height="500">
<rect x="0" y="0" width="500" height="500" style="stroke:#000;fill:none" />
<line x1="250" y1="160" x2="172" y2="295" style="stroke:#000" />
<line x1="250" y1="169" x2="180" y2="291" style="stroke:#000" />
<line x1="250" y1="177" x2="187" y2="286" style="stroke:#000" />
<line x1="250" y1="184" x2="193" y2="283" style="stroke:#000" />
<line x1="250" y1="191" x2="199" y2="280" style="stroke:#000" />
<line x1="250" y1="197" x2="204" y2="277" style="stroke:#000" />
<line x1="250" y1="202" x2="208" y2="274" style="stroke:#000" />
<line x1="250" y1="207" x2="213" y2="272" style="stroke:#000" />
<line x1="250" y1="211" x2="216" y2="269" style="stroke:#000" />
<line x1="250" y1="215" x2="220" y2="267" style="stroke:#000" />
<line x1="250" y1="219" x2="223" y2="266" style="stroke:#000" />
<line x1="250" y1="222" x2="225" y2="264" style="stroke:#000" />
<line x1="250" y1="225" x2="228" y2="263" style="stroke:#000" />
<line x1="250" y1="227" x2="230" y2="261" style="stroke:#000" />
<line x1="250" y1="229" x2="232" y2="260" style="stroke:#000" />
<line x1="250" y1="231" x2="234" y2="259" style="stroke:#000" />
<line x1="250" y1="233" x2="235" y2="258" style="stroke:#000" />
<line x1="250" y1="235" x2="237" y2="258" style="stroke:#000" />
<line x1="250" y1="236" x2="238" y2="257" style="stroke:#000" />
<line x1="250" y1="238" x2="239" y2="256" style="stroke:#000" />
<line x1="250" y1="239" x2="240" y2="255" style="stroke:#000" />
<line x1="250" y1="240" x2="241" y2="255" style="stroke:#000" />
<line x1="250" y1="241" x2="242" y2="254" style="stroke:#000" />
<line x1="250" y1="242" x2="243" y2="254" style="stroke:#000" />
<line x1="250" y1="243" x2="244" y2="254" style="stroke:#000" />
<line x1="172" y1="295" x2="328" y2="295" style="stroke:#000" />
<line x1="180" y1="291" x2="320" y2="291" style="stroke:#000" />
<line x1="187" y1="286" x2="313" y2="286" style="stroke:#000" />
<line x1="193" y1="283" x2="307" y2="283" style="stroke:#000" />
<line x1="199" y1="280" x2="301" y2="280" style="stroke:#000" />
<line x1="204" y1="277" x2="296" y2="277" style="stroke:#000" />
<line x1="208" y1="274" x2="292" y2="274" style="stroke:#000" />
<line x1="213" y1="272" x2="287" y2="272" style="stroke:#000" />
<line x1="216" y1="269" x2="284" y2="269" style="stroke:#000" />
<line x1="220" y1="267" x2="280" y2="267" style="stroke:#000" />
<line x1="223" y1="266" x2="277" y2="266" style="stroke:#000" />
<line x1="225" y1="264" x2="275" y2="264" style="stroke:#000" />
<line x1="228" y1="263" x2="272" y2="263" style="stroke:#000" />
<line x1="230" y1="261" x2="270" y2="261" style="stroke:#000" />
<line x1="232" y1="260" x2="268" y2="260" style="stroke:#000" />
<line x1="234" y1="259" x2="266" y2="259" style="stroke:#000" />
<line x1="235" y1="258" x2="265" y2="258" style="stroke:#000" />
<line x1="237" y1="258" x2="263" y2="258" style="stroke:#000" />
<line x1="238" y1="257" x2="262" y2="257" style="stroke:#000" />
<line x1="239" y1="256" x2="261" y2="256" style="stroke:#000" />
<line x1="240" y1="255" x2="260" y2="255" style="stroke:#000" />
<line x1="241" y1="255" x2="259" y2="255" style="stroke:#000" />
<line x1="242" y1="254" x2="258" y2="254" style="stroke:#000" />
<line x1="243" y1="254" x2="257" y2="254" style="stroke:#000" />
<line x1="244" y1="254" x2="256" y2="254" style="stroke:#000" />
<line x1="328" y1="295" x2="250" y2="160" style="stroke:#000" />
<line x1="320" y1="291" x2="250" y2="169" style="stroke:#000" />
<line x1="313" y1="286" x2="250" y2="177" style="stroke:#000" />
<line x1="307" y1="283" x2="250" y2="184" style="stroke:#000" />
<line x1="301" y1="280" x2="250" y2="191" style="stroke:#000" />
<line x1="296" y1="277" x2="250" y2="197" style="stroke:#000" />
<line x1="292" y1="274" x2="250" y2="202" style="stroke:#000" />
<line x1="287" y1="272" x2="250" y2="207" style="stroke:#000" />
<line x1="284" y1="269" x2="250" y2="211" style="stroke:#000" />
<line x1="280" y1="267" x2="250" y2="215" style="stroke:#000" />
<line x1="277" y1="266" x2="250" y2="219" style="stroke:#000" />
<line x1="275" y1="264" x2="250" y2="222" style="stroke:#000" />
<line x1="272" y1="263" x2="250" y2="225" style="stroke:#000" />
<line x1="270" y1="261" x2="250" y2="227" style="stroke:#000" />
<line x1="268" y1="260" x2="250" y2="229" style="stroke:#000" />
<line x1="266" y1="259" x2="250" y2="231" style="stroke:#000" />
<line x1="265" y1="258" x2="250" y2="233" style="stroke:#000" />
<line x1="263" y1="258" x2="250" y2="235" style="stroke:#000" />
<line x1="262" y1="257" x2="250" y2="236" style="stroke:#000" />
<line x1="261" y1="256" x2="250" y2="238" style="stroke:#000" />
<line x1="260" y1="255" x2="250" y2="239" style="stroke:#000" />
<line x1="259" y1="255" x2="250" y2="240" style="stroke:#000" />
<line x1="258" y1="254" x2="250" y2="241" style="stroke:#000" />
<line x1="257" y1="254" x2="250" y2="242" style="stroke:#000" />
<line x1="256" y1="254" x2="250" y2="243" style="stroke:#000" />
</svg>
